<?xml version="1.0" standalone="no"?>
<!DOCTYPE svg PUBLIC "-//W3C//DTD SVG 1.1//EN"
"http://www.w3.org/Graphics/SVG/1.1/DTD/svg11.dtd">

<svg width="333" height="348" view_box="0 0 333 348"
xmlns="http://www.w3.org/2000/svg"
xmlns:link="http://www.w3.org/1999/xlink">\n\n<desc>Généré par Mocodo 2.3.7 le Sun, 09 Jan 2022 06:20:12</desc>

<rect id="frame" x="0" y="0" width="333" height="348" fill="#f7f7f7" stroke="none" stroke-width="0"/>

<!-- Association POSSEDE -->
<line x1="156" y1="102" x2="46" y2="102" stroke="#8073ac" stroke-width="2"/>
<text x="88" y="119.0" fill="#b35806" font-family="Verdana" font-size="12">0,N</text>
<line x1="46" y1="271" x2="46" y2="102" stroke="#8073ac" stroke-width="2"/>
<text x="51.0" y="195" fill="#b35806" font-family="Verdana" font-size="12">1,1</text>
<g id="association-POSSEDE">
	<path d="M 69 77 a 14 14 90 0 1 14 14 V 102 h -74 V 91 a 14 14 90 0 1 14 -14" fill="#b2abd2" stroke="#b2abd2" stroke-width="0"/>
	<path d="M 83 102.0 v 11 a 14 14 90 0 1 -14 14 H 23 a 14 14 90 0 1 -14 -14 V 102.0 H 74" fill="#d8daeb" stroke="#d8daeb" stroke-width="0"/>
	<rect x="9" y="77" width="74" height="50" fill="none" rx="14" stroke="#8073ac" stroke-width="2"/>
	<line x1="9" y1="102" x2="83" y2="102" stroke="#8073ac" stroke-width="1"/>
	<text x="16" y="94.7" fill="#000000" font-family="Verdana" font-size="12">POSSEDE</text>
</g>

<!-- Association APPARTIENT -->
<line x1="156" y1="102" x2="275" y2="102" stroke="#8073ac" stroke-width="2"/>
<text x="202" y="119.0" fill="#b35806" font-family="Verdana" font-size="12">0,N</text>
<line x1="275" y1="271" x2="275" y2="102" stroke="#8073ac" stroke-width="2"/>
<text x="280.0" y="212" fill="#b35806" font-family="Verdana" font-size="12">1,N</text>
<g id="association-APPARTIENT">
	<path d="M 307 77 a 14 14 90 0 1 14 14 V 102 h -92 V 91 a 14 14 90 0 1 14 -14" fill="#b2abd2" stroke="#b2abd2" stroke-width="0"/>
	<path d="M 321 102.0 v 11 a 14 14 90 0 1 -14 14 H 243 a 14 14 90 0 1 -14 -14 V 102.0 H 92" fill="#d8daeb" stroke="#d8daeb" stroke-width="0"/>
	<rect x="229" y="77" width="92" height="50" fill="none" rx="14" stroke="#8073ac" stroke-width="2"/>
	<line x1="229" y1="102" x2="321" y2="102" stroke="#8073ac" stroke-width="1"/>
	<text x="236" y="94.7" fill="#000000" font-family="Verdana" font-size="12">APPARTIENT</text>
</g>

<!-- Entity RECIPE -->
<g id="entity-RECIPE">
	<g id="frame-RECIPE">
		<rect x="115" y="9" width="82" height="25" fill="#fdb863" stroke="#fdb863" stroke-width="0"/>
		<rect x="115" y="34.0" width="82" height="161" fill="#fee0b6" stroke="#fee0b6" stroke-width="0"/>
		<rect x="115" y="9" width="82" height="186" fill="none" stroke="#e08214" stroke-width="2"/>
		<line x1="115" y1="34" x2="197" y2="34" stroke="#e08214" stroke-width="1"/>
	</g>
	<text x="133" y="26.7" fill="#000000" font-family="Verdana" font-size="12">RECIPE</text>
	<text x="120" y="51.7" fill="#000000" font-family="Verdana" font-size="12">id</text>
	<line x1="120" y1="54" x2="132" y2="54" stroke="#000000" stroke-width="1"/>
	<text x="120" y="68.7" fill="#000000" font-family="Verdana" font-size="12">name</text>
	<text x="120" y="85.7" fill="#000000" font-family="Verdana" font-size="12">title</text>
	<text x="120" y="102.8" fill="#000000" font-family="Verdana" font-size="12">slug</text>
	<text x="120" y="119.8" fill="#000000" font-family="Verdana" font-size="12">thumbnail</text>
	<text x="120" y="136.8" fill="#000000" font-family="Verdana" font-size="12">author</text>
	<text x="120" y="153.8" fill="#000000" font-family="Verdana" font-size="12">difficulty</text>
	<text x="120" y="170.8" fill="#000000" font-family="Verdana" font-size="12">description</text>
	<text x="120" y="187.8" fill="#000000" font-family="Verdana" font-size="12">instructions</text>
</g>

<!-- Entity USER -->
<g id="entity-USER">
	<g id="frame-USER">
		<rect x="12" y="203" width="68" height="25" fill="#fdb863" stroke="#fdb863" stroke-width="0"/>
		<rect x="12" y="228.0" width="68" height="111" fill="#fee0b6" stroke="#fee0b6" stroke-width="0"/>
		<rect x="12" y="203" width="68" height="136" fill="none" stroke="#e08214" stroke-width="2"/>
		<line x1="12" y1="228" x2="80" y2="228" stroke="#e08214" stroke-width="1"/>
	</g>
	<text x="29" y="220.7" fill="#000000" font-family="Verdana" font-size="12">USER</text>
	<text x="17" y="245.7" fill="#000000" font-family="Verdana" font-size="12">id</text>
	<line x1="17" y1="248" x2="29" y2="248" stroke="#000000" stroke-width="1"/>
	<text x="17" y="262.7" fill="#000000" font-family="Verdana" font-size="12">email</text>
	<text x="17" y="279.8" fill="#000000" font-family="Verdana" font-size="12">firstname</text>
	<text x="17" y="296.8" fill="#000000" font-family="Verdana" font-size="12">lastname</text>
	<text x="17" y="313.8" fill="#000000" font-family="Verdana" font-size="12">roles</text>
	<text x="17" y="330.8" fill="#000000" font-family="Verdana" font-size="12">password</text>
</g>

<!-- Entity INGREDIENTS -->
<g id="entity-INGREDIENTS">
	<g id="frame-INGREDIENTS">
		<rect x="226" y="220" width="98" height="25" fill="#fdb863" stroke="#fdb863" stroke-width="0"/>
		<rect x="226" y="245.0" width="98" height="77" fill="#fee0b6" stroke="#fee0b6" stroke-width="0"/>
		<rect x="226" y="220" width="98" height="102" fill="none" stroke="#e08214" stroke-width="2"/>
		<line x1="226" y1="245" x2="324" y2="245" stroke="#e08214" stroke-width="1"/>
	</g>
	<text x="231" y="237.7" fill="#000000" font-family="Verdana" font-size="12">INGREDIENTS</text>
	<text x="231" y="262.7" fill="#000000" font-family="Verdana" font-size="12">id</text>
	<line x1="231" y1="265" x2="243" y2="265" stroke="#000000" stroke-width="1"/>
	<text x="231" y="279.8" fill="#000000" font-family="Verdana" font-size="12">quantity</text>
	<text x="231" y="296.8" fill="#000000" font-family="Verdana" font-size="12">unit</text>
	<text x="231" y="313.8" fill="#000000" font-family="Verdana" font-size="12">name</text>
</g>
</svg>